{"title":"Exploited College Girls Maelynn","uid":8943914,"size":1142658225,"categoryP":"porn","categoryS":"movie_clips","magnet":"?xt=urn:btih:1dcc00bbada6dce3fd2b13404c7af13ef5d492ec&amp;dn=Exploited+College+Girls+Maelynn&amp;tr=udp%3A%2F%2Ftracker.openbittorrent.com%3A80&amp;tr=udp%3A%2F%2Fopen.demonii.com%3A1337&amp;tr=udp%3A%2F%2Ftracker.coppersurfer.tk%3A6969&amp;tr=udp%3A%2F%2Fexodus.desync.com%3A6969","seeders":0,"leechers":1,"uploader":null,"files":3,"time":1379726978,"description":"One of the best shoots of 2011. There, I said it. I think you will agree with me when you watch Maelynn in action. We start her transformation from normal ASU college girl to porn goddess in the makeup chair. Already at that point Jay and me are having a lot of fun teasing and flirting with Maelynn: she's about the funnest chick you can imagine, very outgoing, very sweet, and down to earth. She enjoys the pampering and as her confidence grows (make-up is key, brothers...), so does her sense for daring and adventure.\nMaelynn is a self proclaimed &quot;good girl&quot; who has only had 2 men in her life and she doesn't do anything 'crazy' like partying or making out with girls. Except when she parties and makes out with girls. You get my drift. To push her envelope a little, I have her do one really weird and naughty thing for me (you'll see...), just to get her reaction. She has that &quot;I can't believe I just did that!&quot; expression and I knew we got to her. Then she lets Jay feel her titties while our friend finishes her make-up. Maelynn is up for anything and I can't wait to see where we can push our blond hottie next.\nWe check out Maelynn's camel toe forming beneath those sexy little panties she brought with her, and Jay flirts with her while she's getting dressed up and throughout the photo shoot. Her happy attitude and effortless sex appeal is like a magnet to both Jay and me, and Maelynn is having a blast with all this attention. She clearly takes a liking to the boy. Big time. Tell me if I'm wrong but I think this girl is falling in love. This may be a problem...with...her...BOYFRIEND she has waiting back at home. Who doesn't know what she's doing today. It gets worse for that guy - just keep watching.\nI start the interview/intro with Maelynn on the bed, but I realize I'm just the 5th wheel here - Jay keeps playing with her boobs while standing next to me, and Maelynn glances at Jay with that &quot;ravage me now!&quot;-look on her face. You see, it turns out she had attempted to do one porn movie before in the past but she wasn't ready and walked out. The reason she is back today is because she enjoyed talking to us on the phone and thought Jay looked so hot in the pictures I sent her. She clearly wants him to fuck her. So I hand him the POV camera...\nHer eyes light up when Jay smooth-talks her into spreading her legs so he can start getting her revved up with his hands and a dildo. Sure enough, Maelynn's pussy gets dripping wet immediately, and she really enjoys herself here. This girl wants the Jayster, bad. He keeps teasing her though for while to make sure he gets the most horny, amped-up Maelynn possible. When neither can contain themselves any longer, Jay asks Maelynn to give him head - and you can't pry these two apart from that point forward. It's now nonstop intense sucking and fucking, so much so that I can barely rearrange cameras in time when these two change positions. Maelynn is really into Jay and she has lots of subtle little orgasms while he fucks her. Watch her eyes when she's on top of him. The girl is hooked on Jay.\nFreshly fucked and thoroughly spent, Maelynn gets off Jay to receive her first ever cum facial. &quot;I love fucking this guy!&quot;, Maelynn says sheepishly, thinking the camera is off. We tease her about her boyfriend finding out and she snickers that there soon may not be a boyfriend. Jay's cock practically explodes at that point and he unloads the biggest wad of cum all over Maelynn's face, so much that this stuff drips all over her arm. So I have her lick off and she laps up the cum like candy. So much for the &quot;good girl&quot;. Maelynn then ambushes Jay in the shower (enough already! LOL) and enjoys his hands soaping up her body. &quot;I might just keep doing this sort of 'work'&quot;, Maelynn giggles. Yeah, I think she might. She definitely should because she's perfect for porn. I don't think she'll ever click with a guy so well again as she did with Jay, though. I feel sorry for her man at home, but I'm glad today happened. So will you - Enjoy!\n\n\nFormat : Windows Media\nFile size : 1.06 GiB\nDuration : 1h 26mn\nOverall bit rate mode : Variable\nOverall bit rate : 1 755 Kbps\nMaximum Overall bit rate : 3 467 Kbps\n\n\n\nVideo\nID : 2\nFormat : VC-1\nFormat profile : MP@ML\nCodec ID : WMV3\nCodec ID/Info : Windows Media Video 9\nCodec ID/Hint : WMV3\nDescription of the codec : Windows Media Video 9\nDuration : 1h 26mn\nBit rate mode : Variable\nBit rate : 1 644 Kbps\nWidth : 640 pixels\nHeight : 360 pixels\nDisplay aspect ratio : 16:9\nFrame rate : 29.970 fps\nBit depth : 8 bits\nScan type : Progressive\nCompression mode : Lossy\nBits/(Pixel*Frame) : 0.238\nStream size : 1 020 MiB (94%)\nNumberOfFrames : 156042\n\nAudio\nID : 1\nFormat : WMA\nFormat version : Version 2\nCodec ID : 161\nCodec ID/Info : Windows Media Audio\nDescription of the codec : Windows Media Audio 9.2 - 96 kbps, 44 kHz, stereo 2-pass VBR\nDuration : 1h 26mn\nBit rate mode : Variable\nBit rate : 96.9 Kbps\nChannel(s) : 2 channels\nSampling rate : 44.1 KHz\nBit depth : 16 bits\nStream size : 60.2 MiB (6%)\nNumberOfFrames : 14150","torrent":{"xt":"urn:btih:1dcc00bbada6dce3fd2b13404c7af13ef5d492ec","amp;dn":"Exploited+College+Girls+Maelynn","amp;tr":["udp%3A%2F%2Ftracker.openbittorrent.com%3A80","udp%3A%2F%2Fopen.demonii.com%3A1337","udp%3A%2F%2Ftracker.coppersurfer.tk%3A6969","udp%3A%2F%2Fexodus.desync.com%3A6969"],"infoHash":"1dcc00bbada6dce3fd2b13404c7af13ef5d492ec","infoHashBuffer":{"type":"Buffer","data":[29,204,0,187,173,166,220,227,253,43,19,64,76,122,241,62,245,212,146,236]},"announce":[],"urlList":[]}}